<svg width="57" height="48" viewBox="0 0 57 48" fill="none" xmlns="http://www.w3.org/2000/svg">
<g clip-path="url(#clip0_33_107)">
<path d="M17.9316 43.5C39.4358 43.5 51.2009 28.4934 51.2009 15.4837C51.2009 15.0618 51.1898 14.6306 51.1675 14.2087C53.4562 12.8149 55.4313 11.0885 57 9.1106C54.8685 9.9092 52.6054 10.4308 50.288 10.6575C52.728 9.42582 54.555 7.49094 55.4303 5.21153C53.1348 6.35712 50.6245 7.16522 48.0069 7.60122C46.2432 6.02312 43.9113 4.97823 41.3718 4.6281C38.8322 4.27797 36.2263 4.6421 33.9571 5.66419C31.6879 6.68629 29.8818 8.30941 28.8179 10.2826C27.754 12.2558 27.4916 14.4692 28.0714 16.5806C23.4234 16.3842 18.8763 15.3674 14.725 13.5962C10.5736 11.825 6.91052 9.33887 3.9733 6.29903C2.48045 8.46649 2.02363 11.0313 2.6957 13.4722C3.36776 15.9131 5.11827 18.0469 7.59146 19.44C5.73474 19.3903 3.91869 18.9694 2.29336 18.2118V18.3337C2.2917 20.6083 3.22548 22.8132 4.93599 24.5735C6.64649 26.3339 9.02814 27.5411 11.6761 27.99C9.95613 28.3863 8.15096 28.444 6.40025 28.1587C7.14746 30.1149 8.60124 31.8258 10.5587 33.0527C12.5162 34.2796 14.8797 34.9612 17.3193 35.0025C13.1775 37.7422 8.06116 39.2283 2.79434 39.2212C1.86031 39.22 0.927198 39.1718 0 39.0768C5.35053 41.9675 11.5746 43.5028 17.9316 43.5Z" fill="white"/>
</g>
<defs>
<clipPath id="clip0_33_107">
<rect width="57" height="48" fill="white"/>
</clipPath>
</defs>
</svg>
